HIERARCHY
ROOT root
{
	OFFSET	0	13.1	24.9
	CHANNELS 6  Xposition Yposition Zposition Xrotation Yrotation Zrotation
	JOINT spine_1
	{
		OFFSET	0	9.99999	0
		CHANNELS 3  Xrotation Yrotation Zrotation
		JOINT spine_2
		{
			OFFSET	0	112	-10
			CHANNELS 3  Xrotation Yrotation Zrotation
			JOINT spine_3
			{
				OFFSET	0	206.5	19.3
				CHANNELS 3  Xrotation Yrotation Zrotation
				JOINT spine_4
				{
					OFFSET	0	110.4	14.6
					CHANNELS 3  Xrotation Yrotation Zrotation
					JOINT neck_1
					{
						OFFSET	0	71.8	-50.3
						CHANNELS 3  Xrotation Yrotation Zrotation
						JOINT neck_2
						{
							OFFSET	0	86.2	-25.8
							CHANNELS 3  Xrotation Yrotation Zrotation
							JOINT head_ee
							{
								OFFSET	0	179.8	-8.7
								CHANNELS 3  Xrotation Yrotation Zrotation
								End Site
								{
									OFFSET	1	0	0
								}
							}
						}
					}
					JOINT left_clavicle
					{
						OFFSET	-43.2	22.4	-70.8
						CHANNELS 3  Xrotation Yrotation Zrotation
						JOINT left_shoulder
						{
							OFFSET	-93.9	-5.79999	48.7
							CHANNELS 3  Xrotation Yrotation Zrotation
							JOINT left_elbow
							{
								OFFSET	-291.4	-30.8	15.2
								CHANNELS 3  Xrotation Yrotation Zrotation
								JOINT left_lowarm_twist
								{
									OFFSET	-110.7	-3.89999	13.6
									CHANNELS 3  Xrotation Yrotation Zrotation
									JOINT left_hand
									{
										OFFSET	-110.7	-3.89999	13.6
										CHANNELS 3  Xrotation Yrotation Zrotation
										JOINT left_ee
										{
											OFFSET	-80.8	-5.10001	12.1
											CHANNELS 3  Xrotation Yrotation Zrotation
											End Site
											{
												OFFSET	1	0	0
											}
										}
									}
								}
							}
						}
					}
					JOINT right_clavicle
					{
						OFFSET	43.2	22.4	-70.8
						CHANNELS 3  Xrotation Yrotation Zrotation
						JOINT right_shoulder
						{
							OFFSET	93.9	-5.79999	48.7
							CHANNELS 3  Xrotation Yrotation Zrotation
							JOINT right_elbow
							{
								OFFSET	291.4	-30.8	15.2
								CHANNELS 3  Xrotation Yrotation Zrotation
								JOINT right_lowarm_twist
								{
									OFFSET	110.7	-3.89999	13.6
									CHANNELS 3  Xrotation Yrotation Zrotation
									JOINT right_hand
									{
										OFFSET	110.7	-3.89999	13.6
										CHANNELS 3  Xrotation Yrotation Zrotation
										JOINT right_ee
										{
											OFFSET	80.8	-5.10001	12.1
											CHANNELS 3  Xrotation Yrotation Zrotation
											End Site
											{
												OFFSET	1	0	0
											}
										}
									}
								}
							}
						}
					}
				}
			}
		}
	}
	JOINT left_hip
	{
		OFFSET	-82.8	-127.5	0.300001
		CHANNELS 3  Xrotation Yrotation Zrotation
		JOINT left_knee
		{
			OFFSET	-28.2	-396.7	2.2
			CHANNELS 3  Xrotation Yrotation Zrotation
			JOINT left_ankle
			{
				OFFSET	-11.7	-411.3	35.4
				CHANNELS 3  Xrotation Yrotation Zrotation
				JOINT left_toes
				{
					OFFSET	0	-60	-88.6
					CHANNELS 3  Xrotation Yrotation Zrotation
					JOINT left_foot_ee
					{
						OFFSET	-22.5	-16.5	-42.2
						CHANNELS 3  Xrotation Yrotation Zrotation
						End Site
						{
							OFFSET	1	0	0
						}
					}
				}
			}
		}
	}
	JOINT right_hip
	{
		OFFSET	82.8	-127.5	0.300001
		CHANNELS 3  Xrotation Yrotation Zrotation
		JOINT right_knee
		{
			OFFSET	28.2	-396.7	2.2
			CHANNELS 3  Xrotation Yrotation Zrotation
			JOINT right_ankle
			{
				OFFSET	11.7	-411.3	35.4
				CHANNELS 3  Xrotation Yrotation Zrotation
				JOINT right_toes
				{
					OFFSET	0	-60	-88.6
					CHANNELS 3  Xrotation Yrotation Zrotation
					JOINT right_foot_ee
					{
						OFFSET	22.5	-16.5	-42.2
						CHANNELS 3  Xrotation Yrotation Zrotation
						End Site
						{
							OFFSET	1	0	0
						}
					}
				}
			}
		}
	}
}
MOTION
Frames: 16
Frame Time: 0.02
3177.02 653.055 -1669.29 -6.97473367121 44.0296234479 10.6545988592 0.247675 -0.227569 -1.9975 0.249889 -0.100028 -2.00793 0.254341 0.31552 -1.98551 0.24884 -0.00194858 -2.01042 -8.78115 -6.02037 2.42838 -8.78972 -12.9604 1.00387 -0.0 0.0 -0.0 7.22478 8.08786 13.8653 -24.3813 -24.4535 66.9234 0.207716 -5.875 0.0106588 20.0476 0.265463 -2.5341 1.66223 25.5904 19.8631 -0.0 0.0 -0.0 4.23647 14.0418 -7.29546 6.72695 12.3898 -53.427 2.20129 47.4714 -0.968032 -51.3789 4.23423 -4.75307 -4.24086 -4.54526 27.0494 0.0 0.0 0.0 35.3408 -12.2556 -3.4957 -8.68078 0.2589 1.30581 -19.9912 14.491 3.02074 28.425 -0.0 -0.0 -0.0 0.0 -0.0 -0.870604 23.4806 -11.5946 -19.1323 -0.304954 -2.90655 42.6857 -25.3253 5.42968 -24.0087 0.0 0.0 0.0 0.0 0.0 
3148.73974123 652.132 -1681.30379889 -6.49944602759 42.6473455278 10.2876291519 0.261566 -0.051605 -2.1029 0.264023 0.0822825 -2.10192 0.261853 0.513136 -2.04001 0.256093 0.184588 -2.09542 -8.34816 -5.25393 2.13419 -8.34799 -11.3168 0.93558 -0.0 0.0 -0.0 8.21522 8.89098 15.6444 -24.4216 -23.7861 65.7256 0.216587 -6.12403 0.0115859 19.6813 0.268614 -2.48742 1.49857 24.5819 18.5978 -0.0 0.0 -0.0 3.23514 14.003 -5.18043 3.51845 13.622 -54.2597 2.2147 47.6446 -0.977926 -51.1148 4.20299 -4.73994 -3.9906 -4.38639 25.2931 0.0 0.0 0.0 35.7524 -13.4304 -3.43995 -13.1085 0.314079 1.98278 -18.7741 14.7399 2.8367 31.7947 -0.0 -0.0 -0.0 0.0 -0.0 -0.703493 25.6203 -10.5558 -21.7245 -0.271162 -3.30283 40.4907 -24.2899 5.19188 -26.1745 0.0 0.0 0.0 0.0 0.0 
3148.63818035 652.132 -1681.06186109 -6.55109845845 43.1334601807 10.3635211617 0.261566 -0.051605 -2.1029 0.264023 0.0822825 -2.10192 0.261853 0.513136 -2.04001 0.256093 0.184588 -2.09542 -8.34816 -5.25393 2.13419 -8.34799 -11.3168 0.93558 -0.0 0.0 -0.0 8.21522 8.89098 15.6444 -24.4216 -23.7861 65.7256 0.216587 -6.12403 0.0115859 19.6813 0.268614 -2.48742 1.49857 24.5819 18.5978 -0.0 0.0 -0.0 3.23514 14.003 -5.18043 3.51845 13.622 -54.2597 2.2147 47.6446 -0.977926 -51.1148 4.20299 -4.73994 -3.9906 -4.38639 25.2931 0.0 0.0 0.0 35.7524 -13.4304 -3.43995 -13.1085 0.314079 1.98278 -18.7741 14.7399 2.8367 31.7947 -0.0 -0.0 -0.0 0.0 -0.0 -0.703493 25.6203 -10.5558 -21.7245 -0.271162 -3.30283 40.4907 -24.2899 5.19188 -26.1745 0.0 0.0 0.0 0.0 0.0 
3148.56137775 652.132 -1680.8749566 -6.59176396344 43.5077867324 10.4227930691 0.261566 -0.051605 -2.1029 0.264023 0.0822825 -2.10192 0.261853 0.513136 -2.04001 0.256093 0.184588 -2.09542 -8.34816 -5.25393 2.13419 -8.34799 -11.3168 0.93558 -0.0 0.0 -0.0 8.21522 8.89098 15.6444 -24.4216 -23.7861 65.7256 0.216587 -6.12403 0.0115859 19.6813 0.268614 -2.48742 1.49857 24.5819 18.5978 -0.0 0.0 -0.0 3.23514 14.003 -5.18043 3.51845 13.622 -54.2597 2.2147 47.6446 -0.977926 -51.1148 4.20299 -4.73994 -3.9906 -4.38639 25.2931 0.0 0.0 0.0 35.7524 -13.4304 -3.43995 -13.1085 0.314079 1.98278 -18.7741 14.7399 2.8367 31.7947 -0.0 -0.0 -0.0 0.0 -0.0 -0.703493 25.6203 -10.5558 -21.7245 -0.271162 -3.30283 40.4907 -24.2899 5.19188 -26.1745 0.0 0.0 0.0 0.0 0.0 
3079.57386953 662.657 -1734.67082407 -4.87873490197 40.7497476743 8.39846921196 0.509001 -0.136878 -2.17499 0.511633 0.00176602 -2.17929 0.512399 0.440897 -2.13425 0.506056 0.0983831 -2.17707 -8.66514 -2.51051 2.83864 -8.64649 -6.67691 2.22728 -0.0 0.0 -0.0 8.41351 9.29917 15.9817 -21.6162 -24.0679 65.5561 0.350978 -9.8633 0.0302849 19.803 0.2676 -2.50293 0.729489 21.7425 13.0803 -0.0 0.0 -0.0 3.4645 14.6349 -5.61097 -3.45148 13.377 -55.7781 1.91334 43.4607 -0.762643 -53.2495 4.45717 -4.84197 -3.12737 -6.28672 18.1152 0.0 0.0 0.0 34.4897 -13.7202 -1.7833 -24.3167 0.219476 3.69722 -18.7283 12.5387 2.82036 31.129 -0.0 -0.0 -0.0 0.0 -0.0 -0.994391 28.5018 -9.6997 -29.8802 -0.0486381 -4.53362 32.8248 -26.5354 4.46933 -26.412 0.0 0.0 0.0 0.0 0.0 
3052.13121715 668.666 -1760.47496542 -3.08759302506 42.3002822667 6.62448545238 0.608323 -0.395578 -2.19963 0.610979 -0.254843 -2.22033 0.621877 0.193387 -2.22652 0.614995 -0.160588 -2.22912 -8.17482 -2.45867 3.87132 -8.13302 -7.31874 3.29365 -0.0 0.0 -0.0 8.69992 9.78506 16.4712 -22.6348 -23.6223 64.8715 0.468686 -13.0712 0.0536952 19.5323 0.26981 -2.46843 -0.222914 18.8222 6.27522 -0.0 0.0 -0.0 2.71979 14.2728 -4.06729 -5.87421 15.1765 -58.8354 1.6791 39.7496 -0.607027 -54.6473 4.62558 -4.90362 -2.40788 -6.36444 13.182 0.0 0.0 0.0 29.7494 -10.3278 -1.22077 -23.5293 0.237064 3.57767 -15.568 13.3117 2.34214 32.4775 -0.0 -0.0 -0.0 0.0 -0.0 1.68121 28.2047 -10.0062 -38.2599 0.359788 -5.75313 26.6889 -26.9225 3.75936 -26.8569 0.0 0.0 0.0 0.0 0.0 
3050.9170381 668.666 -1758.78831842 -3.12608440972 43.0691862363 6.6812591538 0.608323 -0.395578 -2.19963 0.610979 -0.254843 -2.22033 0.621877 0.193387 -2.22652 0.614995 -0.160588 -2.22912 -8.17482 -2.45867 3.87132 -8.13302 -7.31874 3.29365 -0.0 0.0 -0.0 8.69992 9.78506 16.4712 -22.6348 -23.6223 64.8715 0.468686 -13.0712 0.0536952 19.5323 0.26981 -2.46843 -0.222914 18.8222 6.27522 -0.0 0.0 -0.0 2.71979 14.2728 -4.06729 -5.87421 15.1765 -58.8354 1.6791 39.7496 -0.607027 -54.6473 4.62558 -4.90362 -2.40788 -6.36444 13.182 0.0 0.0 0.0 29.7494 -10.3278 -1.22077 -23.5293 0.237064 3.57767 -15.568 13.3117 2.34214 32.4775 -0.0 -0.0 -0.0 0.0 -0.0 1.68121 28.2047 -10.0062 -38.2599 0.359788 -5.75313 26.6889 -26.9225 3.75936 -26.8569 0.0 0.0 0.0 0.0 0.0 
3050.28555875 668.666 -1757.89184762 -3.14701341092 43.4748764902 6.71179161053 0.608323 -0.395578 -2.19963 0.610979 -0.254843 -2.22033 0.621877 0.193387 -2.22652 0.614995 -0.160588 -2.22912 -8.17482 -2.45867 3.87132 -8.13302 -7.31874 3.29365 -0.0 0.0 -0.0 8.69992 9.78506 16.4712 -22.6348 -23.6223 64.8715 0.468686 -13.0712 0.0536952 19.5323 0.26981 -2.46843 -0.222914 18.8222 6.27522 -0.0 0.0 -0.0 2.71979 14.2728 -4.06729 -5.87421 15.1765 -58.8354 1.6791 39.7496 -0.607027 -54.6473 4.62558 -4.90362 -2.40788 -6.36444 13.182 0.0 0.0 0.0 29.7494 -10.3278 -1.22077 -23.5293 0.237064 3.57767 -15.568 13.3117 2.34214 32.4775 -0.0 -0.0 -0.0 0.0 -0.0 1.68121 28.2047 -10.0062 -38.2599 0.359788 -5.75313 26.6889 -26.9225 3.75936 -26.8569 0.0 0.0 0.0 0.0 0.0 
3049.588238 668.666 -1756.885959 -3.17089650258 43.9276927946 6.74635949661 0.608323 -0.395578 -2.19963 0.610979 -0.254843 -2.22033 0.621877 0.193387 -2.22652 0.614995 -0.160588 -2.22912 -8.17482 -2.45867 3.87132 -8.13302 -7.31874 3.29365 -0.0 0.0 -0.0 8.69992 9.78506 16.4712 -22.6348 -23.6223 64.8715 0.468686 -13.0712 0.0536952 19.5323 0.26981 -2.46843 -0.222914 18.8222 6.27522 -0.0 0.0 -0.0 2.71979 14.2728 -4.06729 -5.87421 15.1765 -58.8354 1.6791 39.7496 -0.607027 -54.6473 4.62558 -4.90362 -2.40788 -6.36444 13.182 0.0 0.0 0.0 29.7494 -10.3278 -1.22077 -23.5293 0.237064 3.57767 -15.568 13.3117 2.34214 32.4775 -0.0 -0.0 -0.0 0.0 -0.0 1.68121 28.2047 -10.0062 -38.2599 0.359788 -5.75313 26.6889 -26.9225 3.75936 -26.8569 0.0 0.0 0.0 0.0 0.0 
3022.43846435 675.404 -1773.56611335 -1.67627861986 44.118563819 5.5391131704 0.575395 -0.580659 -2.19056 0.577957 -0.440126 -2.22305 0.596235 0.0132454 -2.26614 0.589234 -0.344724 -2.23982 -9.63287 -1.63199 5.40134 -9.55759 -6.75161 4.89276 -0.0 0.0 -0.0 8.73049 9.6375 16.5391 -21.972 -23.7271 64.515 0.542631 -15.0458 0.0716601 19.0909 0.273064 -2.41214 -1.0991 18.9695 1.07022 -0.0 0.0 -0.0 2.72572 12.143 -4.27255 -7.68915 16.5544 -59.0409 1.60665 38.5129 -0.561302 -56.3347 4.83076 -4.97253 -2.2467 -6.5387 12.0164 0.0 0.0 0.0 27.0899 -9.38743 -1.4077 -24.6794 0.210822 3.75221 -13.494 12.7213 2.02485 34.1158 -0.0 -0.0 -0.0 0.0 -0.0 2.64764 25.6536 -8.43611 -43.847 0.729471 -6.52824 22.9708 -25.3099 3.25906 -27.52 0.0 0.0 0.0 0.0 0.0 
3000.00761672 679.416 -1786.89391943 -0.898493380219 44.047795354 5.05080111337 0.615885 -0.450933 -2.26514 0.618687 -0.305921 -2.28922 0.632028 0.156644 -2.30425 0.62468 -0.209135 -2.30008 -9.68488 -1.27119 4.97812 -9.62015 -5.78143 4.56149 -0.0 0.0 -0.0 9.11643 8.53454 17.3447 -21.3304 -23.3429 63.2079 0.586785 -16.208 0.0835546 17.9217 0.279586 -2.26295 -1.79851 19.1126 -3.05175 -0.0 0.0 -0.0 2.57273 11.8188 -3.98154 -10.2711 18.6574 -59.7991 1.46477 35.9626 -0.475428 -58.0721 5.044 -5.03712 -2.11805 -7.90494 10.4937 0.0 0.0 0.0 23.7475 -5.14561 -2.61011 -22.3949 0.259508 3.40504 -12.045 8.88848 1.80026 35.0879 -0.0 -0.0 -0.0 0.0 -0.0 4.3093 27.1079 -7.64249 -47.4039 1.00366 -7.00185 22.0014 -19.5436 3.04886 -30.1683 0.0 0.0 0.0 0.0 0.0 
2995.77745362 679.416 -1780.26389369 -0.932505051972 46.1679653449 5.09880235202 0.615885 -0.450933 -2.26514 0.618687 -0.305921 -2.28922 0.632028 0.156644 -2.30425 0.62468 -0.209135 -2.30008 -9.68488 -1.27119 4.97812 -9.62015 -5.78143 4.56149 -0.0 0.0 -0.0 9.11643 8.53454 17.3447 -21.3304 -23.3429 63.2079 0.586785 -16.208 0.0835546 17.9217 0.279586 -2.26295 -1.79851 19.1126 -3.05175 -0.0 0.0 -0.0 2.57273 11.8188 -3.98154 -10.2711 18.6574 -59.7991 1.46477 35.9626 -0.475428 -58.0721 5.044 -5.03712 -2.11805 -7.90494 10.4937 0.0 0.0 0.0 23.7475 -5.14561 -2.61011 -22.3949 0.259508 3.40504 -12.045 8.88848 1.80026 35.0879 -0.0 -0.0 -0.0 0.0 -0.0 4.3093 27.1079 -7.64249 -47.4039 1.00366 -7.00185 22.0014 -19.5436 3.04886 -30.1683 0.0 0.0 0.0 0.0 0.0 
2966.54024447 682.661 -1780.21022962 1.01783018165 48.5919635033 2.9038381359 0.46851 -0.517598 -2.34511 0.471494 -0.367366 -2.37328 0.488086 0.119178 -2.39857 0.480152 -0.261017 -2.38731 -8.77453 -1.13793 5.38961 -8.69319 -5.88027 5.05258 -0.0 0.0 -0.0 9.18164 8.79635 17.4449 -20.2864 -24.256 62.7619 0.688644 -18.8363 0.11423 18.4537 0.276996 -2.33085 -1.56855 16.1483 -3.05185 -0.0 0.0 -0.0 2.54575 13.4493 -3.77598 -11.6859 16.6728 -60.3208 1.34822 33.7359 -0.408813 -58.0131 5.03674 -5.03504 -1.81711 -7.03144 8.9295 0.0 0.0 0.0 20.7365 -4.82172 -1.18812 -21.9631 0.267151 3.33922 -13.7667 11.7075 2.06409 34.2847 -0.0 -0.0 -0.0 0.0 -0.0 5.16764 27.4291 -5.29858 -50.0631 1.22767 -7.3445 23.3421 -26.0697 3.32123 -26.5982 0.0 0.0 0.0 0.0 0.0 
2945.23294276 685.747 -1789.66635238 0.777643891785 47.9736460424 3.38724031322 0.582829 -0.356555 -2.25415 0.585631 -0.212433 -2.27226 0.595105 0.246407 -2.26883 0.58794 -0.114908 -2.27927 -10.061 0.927025 4.15523 -10.0122 -1.06199 4.28115 -0.0 0.0 -0.0 9.06176 6.7664 17.3766 -19.2169 -24.4641 61.6912 0.730673 -19.8979 0.128168 18.7206 0.275459 -2.36491 -1.80557 15.3476 -4.89222 -0.0 0.0 -0.0 2.27149 13.0508 -3.2362 -11.222 18.7034 -63.0152 1.07291 27.9893 -0.267408 -59.1418 5.17622 -5.07366 -1.80807 -7.41646 8.6875 0.0 0.0 0.0 18.6515 -6.89355 -1.01459 -21.5255 0.274392 3.27246 -9.38068 13.8292 1.40298 35.7558 -0.0 -0.0 -0.0 0.0 -0.0 7.31126 30.5234 -6.74793 -51.1021 1.3195 -7.47555 18.829 -26.6674 2.74028 -26.4958 0.0 0.0 0.0 0.0 0.0 
2912.29111594 699.078 -1816.55102147 2.19072372264 44.2178152822 4.01943213759 0.429608 -0.320507 -2.67343 0.433571 -0.149803 -2.68839 0.442121 0.398274 -2.66296 0.432227 -0.0271308 -2.69242 -12.0438 0.898342 4.42441 -11.989 -1.14436 4.50467 -0.0 0.0 -0.0 9.10344 8.72588 17.3046 -15.3157 -24.6986 60.0519 0.929353 -24.7198 0.203654 18.9006 0.274333 -2.38787 -1.91184 14.175 -6.11817 -0.0 0.0 -0.0 2.8091 11.7962 -4.47772 -14.6648 19.302 -63.474 0.99961 26.343 -0.233938 -64.2282 5.81278 -5.21323 -1.20535 -7.90611 4.524 0.0 0.0 0.0 13.8738 -5.69437 -3.66448 -17.375 0.317651 2.63724 -10.0466 17.6426 1.51636 36.5206 -0.0 -0.0 -0.0 0.0 -0.0 11.0997 18.0442 -3.05694 -51.5406 1.35897 -7.53036 11.2285 -19.0474 1.62016 -29.9636 0.0 0.0 0.0 0.0 0.0 
2899.47235678 703.546 -1833.37738813 1.71262248604 42.8982935754 5.16621415228 0.471034 -0.43486 -2.76333 0.475245 -0.258211 -2.78538 0.489499 0.309376 -2.78016 0.478738 -0.133405 -2.79413 -12.7461 1.04269 3.82995 -12.7048 -0.438997 3.96897 -0.0 0.0 -0.0 10.167 8.85681 19.2972 -16.9247 -24.5933 55.9505 1.0186 -26.7741 0.242427 17.7419 0.280319 -2.24 -2.21125 8.67449 -10.73 -0.0 0.0 -0.0 2.83985 10.5283 -4.65189 -15.5428 19.9656 -63.4554 0.932157 24.7854 -0.204828 -63.5052 5.72162 -5.19686 -0.88831 -6.05936 3.27773 0.0 0.0 0.0 10.3136 -11.88 -3.802 -13.8495 0.318197 2.09641 -9.68591 22.141 1.48416 36.3069 -0.0 -0.0 -0.0 0.0 -0.0 14.6241 14.8227 -4.61926 -50.7647 1.28942 -7.43317 8.73037 -21.539 1.28204 -31.4059 0.0 0.0 0.0 0.0 0.0 
